<svg xmlns="http://www.w3.org/2000/svg" id="Layer_1" data-name="Layer 1" viewBox="0 0 608.78 616.97"><defs><style>.cls-1{fill:#3b85fa}</style></defs><ellipse cx="379.08" cy="265.66" class="cls-1" rx="42.59" ry="42.29" transform="rotate(-88.92 379.081 265.663)"/><path d="M480.2 0H128.58A128.58 128.58 0 0 0 0 128.58v359.81A128.58 128.58 0 0 0 128.58 617H480.2a128.58 128.58 0 0 0 128.58-128.61V128.58A128.58 128.58 0 0 0 480.2 0M247.9 413c-1.18 29.47-25.79 54.56-55.5 55.49h-9.91A55.49 55.49 0 0 1 127 413V211.83c-1.65-32.44 19.71-54.11 44.49-55.49h20.91c26.57 2.77 53 26.19 55.5 59.49Zm159-39.44-6.84.77c-20.47 1.5-28.95 13.33-29.38 13.63l-57.2 67.88c-1.95 2.36-8 8.56-10.28 10.08-1.52 1.13-5.12 1.57-7.53 1.57-11.69 0-19.18-8.48-19.18-20.17V177.51a21.18 21.18 0 0 1 21.18-21.17l93.31-.09c1.24 0 2.49 0 3.74.08 47.81 2.21 97.24 45.75 97 109.09-.1 55.58-37.01 96.81-84.79 108.12Z" class="cls-1"/></svg>